# xmcd
#
# Track frame offsets: 
#        150
#        16359
#        28085
#        43304
#        55857
#        70892
#        98409
#
# Disc length: 1505 seconds
#
# Revision: 0
# Processed by: cddbd v1.5.2PL0 Copyright (c) Steve Scherf et al.
# Submitted via: ExactAudioCopyFreeDBPlugin 1.0
#
DISCID=5605df07
DTITLE=Honolulu Slim and the Diamonds - Right Now!
DYEAR=2000
DGENRE=Blues
TTITLE0=Put My Wood In Your Oven
TTITLE1=I'M ON MY WAY
TTITLE2=Jelly On the Corner
TTITLE3=SWING WITH ME BABY
TTITLE4=Crazy Legs
TTITLE5=GYPSY JUMP
TTITLE6=DATA
EXTD=
EXTT0=
EXTT1=
EXTT2=
EXTT3=
EXTT4=
EXTT5=
EXTT6=
PLAYORDER=
